<svg height="64" viewBox="0 0 64 64" width="64" xmlns="http://www.w3.org/2000/svg"><g fill="none" fill-rule="evenodd"><circle cx="32" cy="32" fill="#5b68c0" r="30"/><path d="m22.48 28.08c.0400002.1066672.06.2066662.06.3 0 .2133344-.1199988.4733318-.36.78-.2933348.3600018-.473333.639999-.54.84l-2.2 6.64c-.066667.2133344-.1.4666652-.1.76v.44c.0133334.1866676.02.3266662.02.42 0 .4933358-.166665.8599988-.5 1.1s-.7133312.36-1.14.36c-.6400032 0-1.1733312-.2399976-1.6-.72-.2133344-.2400012-.32-.5133318-.32-.82 0-.4533356-.0133332-.7399994-.04-.86l-1.2-4.44-1.16 4c-.0400002.1466674-.0733332.4266646-.1.84-.0266668.333335-.0999994.599999-.22.8-.5066692.8266708-1.126663 1.24-1.86 1.24-.2533346 0-.4866656-.0733326-.7-.22-.266668-.1733342-.4266664-.4399982-.48-.8s-.1066664-.7133316-.16-1.06l-1.76-6.84c-.0400002-.1733342-.159999-.493331-.36-.96-.1600008-.3600018-.24-.6666654-.24-.92 0-.1733342.033333-.3466658.1-.52.1200006-.3733352.5999958-.56 1.44-.56.466669 0 .7799992.066666.94.2.200001.1733342.3066666.4533314.32.84.0133334.5866696.0266666.9066664.04.96l1.2 4.8 1.68-4.92c.0266668-.0933338.04-.1866662.04-.28 0-.0800004-.0166665-.1966659-.05-.35s-.05-.2699996-.05-.35c0-.2933348.1599984-.5199992.48-.68.266668-.1466674.5599984-.22.88-.22.4400022 0 .8066652.1066656 1.1.32.3733352.266668.5799998.6099979.62 1.03s.0733332.8366646.1 1.25l1.2 4.8 1.92-5.76c.0266668-.0800004.04-.1666662.04-.26 0-.1066672-.0199998-.2499991-.06-.43s-.06-.3166662-.06-.41c0-.1200006.0266664-.2333328.08-.34.200001-.3600018.7266624-.54 1.58-.54.800004 0 1.2733326.1799982 1.42.54zm16.28 0c.0400002.1066672.06.2066662.06.3 0 .2133344-.1199988.4733318-.36.78-.2933348.3600018-.473333.639999-.54.84l-2.2 6.64c-.066667.2133344-.1.4666652-.1.76v.44c.0133334.1866676.02.3266662.02.42 0 .4933358-.166665.8599988-.5 1.1s-.7133312.36-1.14.36c-.6400032 0-1.1733312-.2399976-1.6-.72-.2133344-.2400012-.32-.5133318-.32-.82 0-.4533356-.0133332-.7399994-.04-.86l-1.2-4.44-1.16 4c-.0400002.1466674-.0733332.4266646-.1.84-.0266668.333335-.0999994.599999-.22.8-.5066692.8266708-1.126663 1.24-1.86 1.24-.2533346 0-.4866656-.0733326-.7-.22-.266668-.1733342-.4266664-.4399982-.48-.8s-.1066664-.7133316-.16-1.06l-1.76-6.84c-.0400002-.1733342-.159999-.493331-.36-.96-.1600008-.3600018-.24-.6666654-.24-.92 0-.1733342.033333-.3466658.1-.52.1200006-.3733352.5999958-.56 1.44-.56.466669 0 .7799992.066666.94.2.200001.1733342.3066666.4533314.32.84.0133334.5866696.0266666.9066664.04.96l1.2 4.8 1.68-4.92c.0266668-.0933338.04-.1866662.04-.28 0-.0800004-.0166665-.1966659-.05-.35s-.05-.2699996-.05-.35c0-.2933348.1599984-.5199992.48-.68.266668-.1466674.5599984-.22.88-.22.4400022 0 .8066652.1066656 1.1.32.3733352.266668.5799998.6099979.62 1.03s.0733332.8366646.1 1.25l1.2 4.8 1.92-5.76c.0266668-.0800004.04-.1666662.04-.26 0-.1066672-.0199998-.2499991-.06-.43s-.06-.3166662-.06-.41c0-.1200006.0266664-.2333328.08-.34.200001-.3600018.7266624-.54 1.58-.54.800004 0 1.2733326.1799982 1.42.54zm16.28 0c.0400002.1066672.06.2066662.06.3 0 .2133344-.1199988.4733318-.36.78-.2933348.3600018-.473333.639999-.54.84l-2.2 6.64c-.066667.2133344-.1.4666652-.1.76v.44c.0133334.1866676.02.3266662.02.42 0 .4933358-.166665.8599988-.5 1.1s-.7133312.36-1.14.36c-.6400032 0-1.1733312-.2399976-1.6-.72-.2133344-.2400012-.32-.5133318-.32-.82 0-.4533356-.0133332-.7399994-.04-.86l-1.2-4.44-1.16 4c-.0400002.1466674-.0733332.4266646-.1.84-.0266668.333335-.0999994.599999-.22.8-.5066692.8266708-1.126663 1.24-1.86 1.24-.2533346 0-.4866656-.0733326-.7-.22-.266668-.1733342-.4266664-.4399982-.48-.8s-.1066664-.7133316-.16-1.06l-1.76-6.84c-.0400002-.1733342-.159999-.493331-.36-.96-.1600008-.3600018-.24-.6666654-.24-.92 0-.1733342.033333-.3466658.1-.52.1200006-.3733352.5999958-.56 1.44-.56.466669 0 .7799992.066666.94.2.200001.1733342.3066666.4533314.32.84.0133334.5866696.0266666.9066664.04.96l1.2 4.8 1.68-4.92c.0266668-.0933338.04-.1866662.04-.28 0-.0800004-.0166665-.1966659-.05-.35s-.05-.2699996-.05-.35c0-.2933348.1599984-.5199992.48-.68.266668-.1466674.5599984-.22.88-.22.4400022 0 .8066652.1066656 1.1.32.3733352.266668.5799998.6099979.62 1.03s.0733332.8366646.1 1.25l1.2 4.8 1.92-5.76c.0266668-.0800004.04-.1666662.04-.26 0-.1066672-.0199998-.2499991-.06-.43s-.06-.3166662-.06-.41c0-.1200006.0266664-.2333328.08-.34.200001-.3600018.7266624-.54 1.58-.54.800004 0 1.2733326.1799982 1.42.54z" fill="#fff"/></g></svg>